<?xml version="1.0" encoding="utf-8"?>
<!-- Svg Vector Icons : http://www.onlinewebfonts.com/icon -->
<!DOCTYPE svg PUBLIC "-//W3C//DTD SVG 1.1//EN" "http://www.w3.org/Graphics/SVG/1.1/DTD/svg11.dtd">
<svg version="1.1" xmlns="http://www.w3.org/2000/svg" xmlns:xlink="http://www.w3.org/1999/xlink" x="0px" y="0px" viewBox="0 0 1000 1000" enable-background="new 0 0 1000 1000" xml:space="preserve">
<metadata> Svg Vector Icons : http://www.onlinewebfonts.com/icon </metadata>
<g><g transform="translate(0.000000,511.000000) scale(0.100000,-0.100000)"><path d="M4123.6,4953.5C2157.3,4597.9,628.4,3101.6,170.5,1086.2c-94-417-94-1528.9,0-1945.9c535.6-2346.5,2485.5-3932.7,4832-3932.7c1896.8,0,3609.7,1083.3,4435.5,2804.4C9756.9-1321.6,9900-667.5,9900,133.7c0,821.7-159.4,1492.1-519.2,2203.4C8673.6,3718.9,7349.1,4696,5824.3,4957.6C5382.7,5031.2,4544.7,5031.2,4123.6,4953.5z M6053.2,4266.7c1900.9-486.5,3221.3-2187.1,3221.3-4145.2c0-1974.5-1300-3654.7-3225.4-4165.7c-343.4-94-474.2-106.3-1046.6-106.3c-580.5,0-703.1,12.3-1062.9,106.3C2173.6-3570,902.3-2082,734.7-279.1C563,1495,1503.2,3158.9,3134.3,3972.4c318.9,159.4,862.6,331.1,1255,392.5C4806.3,4430.3,5603.5,4381.2,6053.2,4266.7z"/><path d="M3224.3,113.3v-2007.2l625.5,12.3l621.4,12.3V113.3V2096l-621.4,12.3l-625.5,12.3V113.3z"/><path d="M5513.6,113.3v-2003.1h633.6h633.6V113.3v2003.1h-633.6h-633.6V113.3z"/></g></g>
</svg>